<svg width="30" height="30" viewBox="0 0 30 30" fill="none" xmlns="http://www.w3.org/2000/svg">
<path d="M16.25 20H13.75C13.0625 20 12.5 19.4375 12.5 18.75H3.7625V23.75C3.7625 25.125 4.8875 26.25 6.2625 26.25H23.75C25.125 26.25 26.25 25.125 26.25 23.75V18.75H17.5C17.5 19.4375 16.9375 20 16.25 20ZM25 8.75H20C20 5.9875 17.7625 3.75 15 3.75C12.2375 3.75 10 5.9875 10 8.75H5C3.625 8.75 2.5 9.875 2.5 11.25V15C2.5 16.3875 3.6125 17.5 5 17.5H12.5V16.25C12.5 15.5625 13.0625 15 13.75 15H16.25C16.9375 15 17.5 15.5625 17.5 16.25V17.5H25C26.375 17.5 27.5 16.375 27.5 15V11.25C27.5 9.875 26.375 8.75 25 8.75ZM12.5 8.75C12.5 7.375 13.625 6.25 15 6.25C16.375 6.25 17.5 7.375 17.5 8.75H12.4875H12.5Z" fill="#202020"/>
</svg>
