<svg width="21" height="21" viewBox="0 0 21 21" fill="none" xmlns="http://www.w3.org/2000/svg">
<path d="M18 2.04688H15V0.546875C15 0.414267 14.9473 0.28709 14.8536 0.193322C14.7598 0.0995535 14.6326 0.046875 14.5 0.046875C14.3674 0.046875 14.2402 0.0995535 14.1464 0.193322C14.0527 0.28709 14 0.414267 14 0.546875V2.04688H7V0.546875C7 0.414267 6.94732 0.28709 6.85355 0.193322C6.75979 0.0995535 6.63261 0.046875 6.5 0.046875C6.36739 0.046875 6.24021 0.0995535 6.14645 0.193322C6.05268 0.28709 6 0.414267 6 0.546875V2.04688H3C2.3372 2.04767 1.70178 2.31132 1.23311 2.77998C0.764441 3.24865 0.500794 3.88408 0.5 4.54688V17.5469C0.500794 18.2097 0.764441 18.8451 1.23311 19.3138C1.70178 19.7824 2.3372 20.0461 3 20.0469H18C18.663 20.0469 19.2989 19.7835 19.7678 19.3146C20.2366 18.8458 20.5 18.2099 20.5 17.5469V4.54688C20.5 3.88383 20.2366 3.24795 19.7678 2.77911C19.2989 2.31027 18.663 2.04688 18 2.04688ZM19.5 17.5469C19.5 17.9447 19.342 18.3262 19.0607 18.6075C18.7794 18.8888 18.3978 19.0469 18 19.0469H3C2.60218 19.0469 2.22064 18.8888 1.93934 18.6075C1.65804 18.3262 1.5 17.9447 1.5 17.5469V9.04688H19.5V17.5469ZM19.5 8.04688H1.5V4.54688C1.5 3.71887 2.17 3.04688 3 3.04688H6V4.54688C6 4.67948 6.05268 4.80666 6.14645 4.90043C6.24021 4.9942 6.36739 5.04688 6.5 5.04688C6.63261 5.04688 6.75979 4.9942 6.85355 4.90043C6.94732 4.80666 7 4.67948 7 4.54688V3.04688H14V4.54688C14 4.67948 14.0527 4.80666 14.1464 4.90043C14.2402 4.9942 14.3674 5.04688 14.5 5.04688C14.6326 5.04688 14.7598 4.9942 14.8536 4.90043C14.9473 4.80666 15 4.67948 15 4.54688V3.04688H18C18.3978 3.04688 18.7794 3.20491 19.0607 3.48621C19.342 3.76752 19.5 4.14905 19.5 4.54688V8.04688Z" fill="#202020"/>
</svg>
