<svg width="20" height="20" viewBox="0 0 20 20" fill="none" xmlns="http://www.w3.org/2000/svg">
<path fill-rule="evenodd" clip-rule="evenodd" d="M9.99995 1.66406C14.6023 1.66406 18.3333 5.39504 18.3333 9.99738C18.3333 14.5998 14.6023 18.3307 9.99995 18.3307C5.3976 18.3307 1.66663 14.5998 1.66663 9.99738C1.66663 5.39504 5.3976 1.66406 9.99995 1.66406ZM3.33331 9.99738C3.33331 13.6793 6.31807 16.6641 9.99995 16.6641C11.5406 16.6641 12.9591 16.1415 14.088 15.2639L4.73342 5.90938C3.85581 7.03828 3.33331 8.45676 3.33331 9.99738ZM9.99995 3.33074C8.45936 3.33074 7.04084 3.85328 5.91194 4.73086L15.2665 14.0854C16.144 12.9565 16.6666 11.538 16.6666 9.99738C16.6666 6.31551 13.6819 3.33074 9.99995 3.33074Z" fill="#E93838"/>
</svg>
