<svg width="18" height="19" viewBox="0 0 18 19" fill="none" xmlns="http://www.w3.org/2000/svg">
<path d="M3.75 14V16.8245L4.88625 16.1428L8.45775 14H12C12.8273 14 13.5 13.3273 13.5 12.5V6.5C13.5 5.67275 12.8273 5 12 5H3C2.17275 5 1.5 5.67275 1.5 6.5V12.5C1.5 13.3273 2.17275 14 3 14H3.75ZM3 6.5H12V12.5H8.04225L5.25 14.1755V12.5H3V6.5Z" fill="#2D033B" fill-opacity="0.7"/>
<path d="M15 2H6C5.17275 2 4.5 2.67275 4.5 3.5H13.5C14.3273 3.5 15 4.17275 15 5V11C15.8273 11 16.5 10.3273 16.5 9.5V3.5C16.5 2.67275 15.8273 2 15 2Z" fill="#2D033B" fill-opacity="0.7"/>
</svg>
