<svg width="13" height="12" viewBox="0 0 13 12" fill="none" xmlns="http://www.w3.org/2000/svg">
<path d="M12.5892 2.96478L8.28147 0.595518C8.21786 0.560524 8.14644 0.542175 8.07384 0.542175C8.00124 0.542175 7.92982 0.560524 7.86621 0.595518L3.55846 2.96478C3.49092 3.00197 3.43459 3.0566 3.39537 3.12297C3.35614 3.18935 3.33545 3.26504 3.33545 3.34214C3.33545 3.41924 3.35614 3.49493 3.39537 3.5613C3.43459 3.62768 3.49092 3.68231 3.55846 3.7195L7.64306 5.96599V10.5835L6.33523 9.86407L5.91997 10.6184L7.86621 11.6888C7.92982 11.7238 8.00124 11.7422 8.07384 11.7422C8.14644 11.7422 8.21786 11.7238 8.28147 11.6888L12.5892 9.31957C12.6568 9.2824 12.7131 9.22778 12.7524 9.1614C12.7916 9.09502 12.8124 9.01933 12.8124 8.94221V3.34214C12.8124 3.26502 12.7916 3.18933 12.7524 3.12295C12.7131 3.05657 12.6568 3.00195 12.5892 2.96478ZM8.07384 1.46482L11.4877 3.34214L8.07384 5.21946L4.65995 3.34214L8.07384 1.46482ZM11.9508 8.68762L8.50461 10.583V5.96556L11.9508 4.07015V8.68762Z" fill="#202020"/>
<path d="M4.19693 6.14121H0.750732V5.27966H4.19693V6.14121ZM5.05848 9.58741H1.61228V8.72586H5.05848V9.58741ZM5.92003 7.86431H2.47383V7.00276H5.92003V7.86431Z" fill="#202020"/>
</svg>
