<svg width="20" height="21" viewBox="0 0 20 21" fill="none" xmlns="http://www.w3.org/2000/svg">
<path d="M17.5 6.08594V10.2526M2.5 6.08594V14.5534C2.5 15.7059 4.12167 16.3909 7.36417 17.7601C8.66667 18.3109 9.31833 18.5859 10 18.5859V9.7151M12.5 16.0859C12.5 16.0859 13.2292 16.0859 13.9583 17.7526C13.9583 17.7526 16.275 13.5859 18.3333 12.7526" stroke="#1DAC00" stroke-width="1.5" stroke-linecap="round" stroke-linejoin="round"/>
<path d="M5 10.2552L6.66667 11.0885M14.1667 3.58854L5.83333 7.75521M6.93833 8.33104L4.50417 7.15354C3.16833 6.50688 2.5 6.18354 2.5 5.67188C2.5 5.16021 3.16833 4.83688 4.50417 4.19021L6.9375 3.01271C8.44167 2.28521 9.19167 1.92188 10 1.92188C10.8083 1.92188 11.5592 2.28521 13.0617 3.01271L15.4958 4.19021C16.8317 4.83688 17.5 5.16021 17.5 5.67188C17.5 6.18354 16.8317 6.50688 15.4958 7.15354L13.0625 8.33104C11.5583 9.05854 10.8083 9.42188 10 9.42188C9.19167 9.42188 8.44083 9.05854 6.93833 8.33104Z" stroke="#1DAC00" stroke-width="1.5" stroke-linecap="round" stroke-linejoin="round"/>
</svg>
