<svg width="19" height="20" viewBox="0 0 19 20" fill="none" xmlns="http://www.w3.org/2000/svg">
<path d="M16.2088 12.5149H6.78486M6.78486 12.5149C6.78486 12.9559 6.6089 13.3789 6.29706 13.6907C5.98522 14.0026 5.56227 14.1778 5.12126 14.1778C4.68025 14.1778 4.2573 14.0026 3.94546 13.6907C3.63362 13.3789 3.45843 12.9559 3.45843 12.5149M6.78486 12.5149C6.78486 12.0739 6.6089 11.651 6.29706 11.3391C5.98522 11.0273 5.56227 10.8521 5.12126 10.8521C4.68025 10.8521 4.2573 11.0273 3.94546 11.3391C3.63362 11.651 3.45843 12.0739 3.45843 12.5149M3.45843 12.5149H2.09766M16.2088 7.47533H13.8404M13.8404 7.47533C13.8404 7.6937 13.7967 7.90992 13.7131 8.11167C13.6295 8.31341 13.5071 8.49672 13.3527 8.65113C13.1982 8.80554 13.0149 8.92802 12.8132 9.01159C12.6114 9.09515 12.3952 9.13816 12.1769 9.13816C11.7358 9.13816 11.3129 8.96297 11.0011 8.65113C10.6892 8.33929 10.514 7.91634 10.514 7.47533M13.8404 7.47533C13.8404 7.25696 13.7967 7.04074 13.7131 6.83899C13.6295 6.63725 13.5071 6.45394 13.3527 6.29953C13.1982 6.14512 13.0149 6.02264 12.8132 5.93908C12.6114 5.85551 12.3952 5.8125 12.1769 5.8125C11.7358 5.8125 11.3129 5.98769 11.0011 6.29953C10.6892 6.61137 10.514 7.03432 10.514 7.47533M10.514 7.47533H2.09766" stroke="#202020" stroke-width="1.14415" stroke-miterlimit="10" stroke-linecap="round"/>
</svg>
