<svg width="19" height="20" viewBox="0 0 19 20" fill="none" xmlns="http://www.w3.org/2000/svg">
<path d="M3.633 19.0003C2.455 19.0003 1.5 18.0203 1.5 16.8103V8.00828C1.5 7.34328 1.795 6.71328 2.3 6.29828L8.167 1.48028C8.54186 1.16986 9.0133 1 9.5 1C9.9867 1 10.4581 1.16986 10.833 1.48028L16.699 6.29828C17.205 6.71328 17.5 7.34328 17.5 8.00828V16.8103C17.5 18.0203 16.545 19.0003 15.367 19.0003H3.633Z" stroke="#202020" stroke-width="1.5" stroke-linecap="round" stroke-linejoin="round"/>
<path d="M7 19V13.5C7 12.9696 7.21071 12.4609 7.58579 12.0858C7.96086 11.7107 8.46957 11.5 9 11.5H10C10.5304 11.5 11.0391 11.7107 11.4142 12.0858C11.7893 12.4609 12 12.9696 12 13.5V19" stroke="#202020" stroke-width="1.5" stroke-linecap="round" stroke-linejoin="round"/>
</svg>
