<svg width="35" height="35" viewBox="0 0 35 35" fill="none" xmlns="http://www.w3.org/2000/svg">
<g clip-path="url(#clip0_13114_12192)">
<rect width="35" height="35" rx="8" fill="url(#paint0_linear_13114_12192)"/>
<g filter="url(#filter0_ddddi_13114_12192)">
<rect x="3.5" y="3.5" width="28" height="28" rx="6" fill="white"/>
<path d="M20.1823 13.9353L19.3294 14.7882C19.8477 15.1004 20.2765 15.5411 20.5744 16.0678C20.8722 16.5944 21.0289 17.1891 21.0294 17.7941C21.0294 18.7302 20.6575 19.6279 19.9956 20.2898C19.3337 20.9517 18.436 21.3235 17.5 21.3235C16.5639 21.3235 15.6662 20.9517 15.0043 20.2898C14.3424 19.6279 13.9705 18.7302 13.9705 17.7941C13.9705 16.5176 14.6529 15.4059 15.6647 14.7824L14.8176 13.9353C14.1928 14.3663 13.6821 14.9428 13.3296 15.615C12.9771 16.2872 12.7933 17.0351 12.7941 17.7941C12.7941 19.0422 13.2899 20.2392 14.1724 21.1217C15.0549 22.0042 16.2519 22.5 17.5 22.5C18.748 22.5 19.945 22.0042 20.8275 21.1217C21.71 20.2392 22.2058 19.0422 22.2058 17.7941C22.2058 16.1941 21.4058 14.7824 20.1823 13.9353ZM18.0882 12.5H16.9117V18.3824H18.0882" fill="url(#paint1_linear_13114_12192)"/>
</g>
</g>
<defs>
<filter id="filter0_ddddi_13114_12192" x="1.5" y="2.5" width="34" height="39" filterUnits="userSpaceOnUse" color-interpolation-filters="sRGB">
<feFlood flood-opacity="0" result="BackgroundImageFix"/>
<feColorMatrix in="SourceAlpha" type="matrix" values="0 0 0 0 0 0 0 0 0 0 0 0 0 0 0 0 0 0 127 0" result="hardAlpha"/>
<feOffset/>
<feGaussianBlur stdDeviation="0.5"/>
<feColorMatrix type="matrix" values="0 0 0 0 0 0 0 0 0 0 0 0 0 0 0 0 0 0 0.1 0"/>
<feBlend mode="normal" in2="BackgroundImageFix" result="effect1_dropShadow_13114_12192"/>
<feColorMatrix in="SourceAlpha" type="matrix" values="0 0 0 0 0 0 0 0 0 0 0 0 0 0 0 0 0 0 127 0" result="hardAlpha"/>
<feOffset dy="2"/>
<feGaussianBlur stdDeviation="1"/>
<feColorMatrix type="matrix" values="0 0 0 0 0 0 0 0 0 0 0 0 0 0 0 0 0 0 0.09 0"/>
<feBlend mode="normal" in2="effect1_dropShadow_13114_12192" result="effect2_dropShadow_13114_12192"/>
<feColorMatrix in="SourceAlpha" type="matrix" values="0 0 0 0 0 0 0 0 0 0 0 0 0 0 0 0 0 0 127 0" result="hardAlpha"/>
<feOffset dx="1" dy="4"/>
<feGaussianBlur stdDeviation="1"/>
<feColorMatrix type="matrix" values="0 0 0 0 0 0 0 0 0 0 0 0 0 0 0 0 0 0 0.05 0"/>
<feBlend mode="normal" in2="effect2_dropShadow_13114_12192" result="effect3_dropShadow_13114_12192"/>
<feColorMatrix in="SourceAlpha" type="matrix" values="0 0 0 0 0 0 0 0 0 0 0 0 0 0 0 0 0 0 127 0" result="hardAlpha"/>
<feOffset dx="1" dy="7"/>
<feGaussianBlur stdDeviation="1.5"/>
<feColorMatrix type="matrix" values="0 0 0 0 0 0 0 0 0 0 0 0 0 0 0 0 0 0 0.01 0"/>
<feBlend mode="normal" in2="effect3_dropShadow_13114_12192" result="effect4_dropShadow_13114_12192"/>
<feBlend mode="normal" in="SourceGraphic" in2="effect4_dropShadow_13114_12192" result="shape"/>
<feColorMatrix in="SourceAlpha" type="matrix" values="0 0 0 0 0 0 0 0 0 0 0 0 0 0 0 0 0 0 127 0" result="hardAlpha"/>
<feOffset dx="2" dy="3"/>
<feGaussianBlur stdDeviation="3"/>
<feComposite in2="hardAlpha" operator="arithmetic" k2="-1" k3="1"/>
<feColorMatrix type="matrix" values="0 0 0 0 0.312717 0 0 0 0 0.545833 0 0 0 0 0.266094 0 0 0 0.1 0"/>
<feBlend mode="normal" in2="shape" result="effect5_innerShadow_13114_12192"/>
</filter>
<linearGradient id="paint0_linear_13114_12192" x1="18.2402" y1="35" x2="18.8107" y2="9.203e-07" gradientUnits="userSpaceOnUse">
<stop stop-color="#FF4747"/>
<stop offset="1" stop-color="#AE1111"/>
</linearGradient>
<linearGradient id="paint1_linear_13114_12192" x1="17.5" y1="12.5" x2="17.5" y2="22.5" gradientUnits="userSpaceOnUse">
<stop stop-color="#FF4747"/>
<stop offset="1" stop-color="#AE1111"/>
</linearGradient>
<clipPath id="clip0_13114_12192">
<rect width="35" height="35" rx="8" fill="white"/>
</clipPath>
</defs>
</svg>
