<svg width="16" height="16" viewBox="0 0 16 16" fill="none" xmlns="http://www.w3.org/2000/svg">
<g id="proicons:location">
<g id="Group">
<path id="Vector" d="M4.26662 3.17302C5.26017 2.19934 6.59782 1.6571 7.98891 1.66413C9.38 1.67116 10.7121 2.22688 11.6958 3.21054C12.6794 4.1942 13.2352 5.52631 13.2422 6.9174C13.2492 8.30848 12.707 9.64614 11.7333 10.6397L8.94262 13.4304C8.69259 13.6803 8.35351 13.8207 7.99996 13.8207C7.6464 13.8207 7.30733 13.6803 7.05729 13.4304L4.26662 10.6397C3.27655 9.64951 2.72034 8.3066 2.72034 6.90635C2.72034 5.5061 3.27655 4.16319 4.26662 3.17302Z" stroke="#34C3A3" stroke-linejoin="round"/>
<path id="Vector_2" d="M8 8.90625C9.10457 8.90625 10 8.01082 10 6.90625C10 5.80168 9.10457 4.90625 8 4.90625C6.89543 4.90625 6 5.80168 6 6.90625C6 8.01082 6.89543 8.90625 8 8.90625Z" stroke="#34C3A3" stroke-linecap="round" stroke-linejoin="round"/>
</g>
</g>
</svg>
