<svg width="21" height="21" viewBox="0 0 21 21" fill="none" xmlns="http://www.w3.org/2000/svg">
<path d="M11 19C9.65555 19 8.55556 18.8172 7.7 18.4516C6.84444 18.0853 6.41667 17.613 6.41667 17.0347C6.41667 16.7585 6.53889 16.4942 6.78333 16.2418C7.02722 15.9893 7.36167 15.7748 7.78667 15.5982L8.4425 16.192C8.21083 16.285 7.97111 16.4086 7.72333 16.5627C7.47611 16.7167 7.32139 16.8681 7.25917 17.0169C7.35472 17.3114 7.75806 17.5674 8.46917 17.7849C9.18028 18.0024 10.0214 18.1111 10.9925 18.1111C11.9636 18.1111 12.8078 18.0024 13.525 17.7849C14.2422 17.5674 14.6489 17.3114 14.745 17.0169C14.7017 16.8646 14.5419 16.7114 14.2658 16.5573C13.9897 16.4033 13.7292 16.2797 13.4842 16.1867L14.1342 15.5884C14.5981 15.7686 14.9556 15.9849 15.2067 16.2373C15.4578 16.4892 15.5833 16.7523 15.5833 17.0267C15.5833 17.6074 15.1556 18.0815 14.3 18.4489C13.4444 18.8163 12.3444 19 11 19ZM11.0208 15.2222C12.4064 14.0726 13.4439 12.9476 14.1333 11.8471C14.8228 10.7467 15.1672 9.66519 15.1667 8.60267C15.1667 7.04711 14.7178 5.87259 13.82 5.07911C12.9233 4.28563 11.9861 3.88889 11.0083 3.88889C10.0306 3.88889 9.09028 4.28593 8.1875 5.08C7.28472 5.87407 6.83333 7.05037 6.83333 8.60889C6.83333 9.6323 7.17639 10.6895 7.8625 11.7804C8.54805 12.8714 9.60083 14.0187 11.0208 15.2222ZM11 16.3333C9.32167 14.9739 8.06889 13.6533 7.24167 12.3716C6.41444 11.0898 6.00056 9.83467 6 8.60622C6 7.67822 6.15028 6.86637 6.45083 6.17067C6.75194 5.47437 7.14278 4.89096 7.62333 4.42044C8.10389 3.94993 8.64167 3.59556 9.23667 3.35733C9.83167 3.11911 10.4203 3 11.0025 3C11.5847 3 12.1725 3.11911 12.7658 3.35733C13.3592 3.59556 13.8961 3.94993 14.3767 4.42044C14.8572 4.89096 15.2481 5.47467 15.5492 6.17156C15.8503 6.86844 16.0006 7.67911 16 8.60356C16 9.83259 15.5861 11.088 14.7583 12.3698C13.9306 13.6516 12.6778 14.9727 11 16.3333ZM11.0083 9.92356C11.3756 9.92356 11.6903 9.78637 11.9525 9.512C12.2147 9.23763 12.3458 8.89896 12.3458 8.496C12.3458 8.09304 12.2142 7.75141 11.9508 7.47111C11.6875 7.19081 11.3706 7.05096 11 7.05156C10.6378 7.05156 10.3228 7.192 10.055 7.47289C9.78722 7.75378 9.65333 8.09185 9.65333 8.48711C9.65333 8.896 9.78722 9.23763 10.055 9.512C10.3228 9.78637 10.6411 9.92356 11.0083 9.92356Z" fill="#202020"/>
</svg>
