<svg width="13" height="12" viewBox="0 0 13 12" fill="none" xmlns="http://www.w3.org/2000/svg">
<path d="M4.82916 7.6631H6.90608C7.36301 7.6631 7.73685 7.28925 7.73685 6.83233C7.73685 6.37541 7.36301 6.00156 6.90608 6.00156H6.07531C5.61839 6.00156 5.24454 5.62772 5.24454 5.17079C5.24454 4.71387 5.61839 4.34002 6.07531 4.34002H8.15224M6.4907 3.09387V4.06338M6.4907 7.24772V8.90925M11.8907 6.00156C11.8907 7.43373 11.3218 8.80724 10.3091 9.81994C9.29638 10.8326 7.92287 11.4016 6.4907 11.4016C5.05853 11.4016 3.68502 10.8326 2.67232 9.81994C1.65963 8.80724 1.0907 7.43373 1.0907 6.00156C1.0907 4.56939 1.65963 3.19588 2.67232 2.18319C3.68502 1.17049 5.05853 0.601563 6.4907 0.601562C7.92287 0.601563 9.29638 1.17049 10.3091 2.18319C11.3218 3.19588 11.8907 4.56939 11.8907 6.00156Z" stroke="#202020" stroke-width="0.6" stroke-miterlimit="10" stroke-linejoin="round"/>
</svg>
