<svg width="20" height="20" viewBox="0 0 20 20" fill="none" xmlns="http://www.w3.org/2000/svg">
<path fill-rule="evenodd" clip-rule="evenodd" d="M7.50836 10.0777C7.28003 9.9152 7.16669 9.83353 7.05336 9.82353C6.95424 9.81466 6.85521 9.84156 6.77419 9.89936C6.68253 9.96603 6.62503 10.0935 6.51169 10.3494L3.97919 16.0469C3.77669 16.5035 3.67503 16.7319 3.71836 16.8785C3.73675 16.9415 3.76973 16.9992 3.81462 17.0469C3.85951 17.0947 3.91504 17.1312 3.97669 17.1535C4.12086 17.2052 4.35503 17.1169 4.82253 16.9419L9.76586 15.0877C9.85253 15.0552 9.89586 15.0394 9.94086 15.0327C9.98038 15.027 10.0205 15.027 10.06 15.0327C10.1042 15.0394 10.1475 15.0552 10.2342 15.0877L15.1775 16.9419C15.645 17.1169 15.8792 17.2052 16.0234 17.1527C16.0849 17.1305 16.1404 17.0941 16.1853 17.0465C16.2302 16.9988 16.2632 16.9413 16.2817 16.8785C16.325 16.7319 16.2234 16.5035 16.0209 16.0469L13.4884 10.3494C13.375 10.0935 13.3184 9.96603 13.2259 9.89936C13.1447 9.84185 13.0457 9.81525 12.9467 9.82436C12.8334 9.83353 12.72 9.9152 12.4917 10.0777L10.4842 11.511C10.3429 11.6119 10.1736 11.6661 10 11.6661C9.82643 11.6661 9.65716 11.6119 9.51586 11.511L7.50836 10.0777ZM7.55086 8.01103C7.54623 8.02154 7.54536 8.03333 7.54839 8.04441C7.55143 8.05549 7.55819 8.06518 7.56753 8.07186L9.61253 9.5327C9.75169 9.6327 9.82169 9.6827 9.89753 9.70103C9.9648 9.7181 10.0353 9.7181 10.1025 9.70103C10.1784 9.68186 10.2484 9.6327 10.3875 9.5327L12.4325 8.07186C12.4421 8.06514 12.4489 8.0553 12.452 8.04404C12.455 8.03278 12.454 8.02081 12.4492 8.0102L10.6084 3.87103C10.415 3.43686 10.3192 3.21936 10.1842 3.1527C10.1267 3.1242 10.0634 3.10938 9.99919 3.10938C9.93501 3.10938 9.8717 3.1242 9.8142 3.1527C9.67919 3.21936 9.58336 3.43603 9.38919 3.87103L7.55086 8.01103Z" fill="#1DAC00"/>
</svg>
