<svg width="11" height="11" viewBox="0 0 11 11" fill="none" xmlns="http://www.w3.org/2000/svg">
<path d="M8.18243 1.93529L7.32949 2.78824C7.84778 3.10038 8.27664 3.54114 8.57449 4.06778C8.87234 4.59442 9.02907 5.18908 9.02949 5.79412C9.02949 6.73018 8.65764 7.6279 7.99575 8.28979C7.33385 8.95168 6.43613 9.32353 5.50007 9.32353C4.56402 9.32353 3.6663 8.95168 3.0044 8.28979C2.34251 7.6279 1.97066 6.73018 1.97066 5.79412C1.97066 4.51765 2.65302 3.40588 3.66478 2.78235L2.81772 1.93529C2.19292 2.36631 1.68227 2.94276 1.32976 3.61499C0.977247 4.28722 0.793447 5.03507 0.794192 5.79412C0.794192 7.0422 1.28999 8.23916 2.17251 9.12168C3.05504 10.0042 4.252 10.5 5.50007 10.5C6.74815 10.5 7.94511 10.0042 8.82764 9.12168C9.71016 8.23916 10.206 7.0422 10.206 5.79412C10.206 4.19412 9.40596 2.78235 8.18243 1.93529ZM6.08831 0.5H4.91184V6.38235H6.08831" fill="url(#paint0_linear_11052_8596)"/>
<defs>
<linearGradient id="paint0_linear_11052_8596" x1="5.50007" y1="0.5" x2="5.50007" y2="10.5" gradientUnits="userSpaceOnUse">
<stop stop-color="#1DAC00"/>
<stop offset="1" stop-color="#04693E"/>
</linearGradient>
</defs>
</svg>
