<svg width="18" height="20" viewBox="0 0 18 20" fill="none" xmlns="http://www.w3.org/2000/svg">
<path d="M8 19.8984C7.88333 19.8984 7.775 19.8901 7.675 19.8734C7.575 19.8568 7.475 19.8318 7.375 19.7984C5.125 19.0484 3.33333 17.6611 2 15.6364C0.666667 13.6118 0 11.4324 0 9.09844V4.37344C0 3.95677 0.121 3.58177 0.363 3.24844C0.605 2.9151 0.917333 2.67344 1.3 2.52344L7.3 0.273438C7.53333 0.190104 7.76667 0.148438 8 0.148438C8.23333 0.148438 8.46667 0.190104 8.7 0.273438L14.7 2.52344C15.0833 2.67344 15.396 2.9151 15.638 3.24844C15.88 3.58177 16.0007 3.95677 16 4.37344V6.99844C16 7.28177 15.904 7.51944 15.712 7.71144C15.52 7.90344 15.2827 7.9991 15 7.99844C14.7173 7.99777 14.48 7.90177 14.288 7.71044C14.096 7.5191 14 7.28177 14 6.99844V4.37344L8 2.12344L2 4.37344V9.09844C2 11.1151 2.56667 12.9484 3.7 14.5984C4.83333 16.2484 6.26667 17.3484 8 17.8984C8.26667 17.8151 8.52933 17.7151 8.788 17.5984C9.04667 17.4818 9.30067 17.3484 9.55 17.1984C9.78333 17.0651 10.0373 17.0151 10.312 17.0484C10.5867 17.0818 10.8077 17.2151 10.975 17.4484C11.1423 17.6818 11.1963 17.9318 11.137 18.1984C11.0777 18.4651 10.932 18.6734 10.7 18.8234C10.3667 19.0234 10.0333 19.2028 9.7 19.3614C9.36667 19.5201 9.00833 19.6658 8.625 19.7984C8.525 19.8318 8.425 19.8568 8.325 19.8734C8.225 19.8901 8.11667 19.8984 8 19.8984ZM17 19.9984C16.7167 19.9984 16.4793 19.9024 16.288 19.7104C16.0967 19.5184 16.0007 19.2811 16 18.9984C15.9993 18.7158 16.0953 18.4784 16.288 18.2864C16.4807 18.0944 16.718 17.9984 17 17.9984C17.282 17.9984 17.5197 18.0944 17.713 18.2864C17.9063 18.4784 18.002 18.7158 18 18.9984C17.998 19.2811 17.902 19.5188 17.712 19.7114C17.522 19.9041 17.2847 19.9998 17 19.9984ZM16 14.9984V10.9984C16 10.7151 16.096 10.4778 16.288 10.2864C16.48 10.0951 16.7173 9.9991 17 9.99844C17.2827 9.99777 17.5203 10.0938 17.713 10.2864C17.9057 10.4791 18.0013 10.7164 18 10.9984V14.9984C18 15.2818 17.904 15.5194 17.712 15.7114C17.52 15.9034 17.2827 15.9991 17 15.9984C16.7173 15.9978 16.48 15.9018 16.288 15.7104C16.096 15.5191 16 15.2818 16 14.9984ZM8 11.9984C8.55 11.9984 9.021 11.8028 9.413 11.4114C9.805 11.0201 10.0007 10.5491 10 9.99844C9.99933 9.44777 9.80367 8.9771 9.413 8.58644C9.02233 8.19577 8.55133 7.99977 8 7.99844C7.44867 7.9971 6.978 8.1931 6.588 8.58644C6.198 8.97977 6.002 9.45044 6 9.99844C5.998 10.5464 6.194 11.0174 6.588 11.4114C6.982 11.8054 7.45267 12.0011 8 11.9984ZM8 13.9984C6.9 13.9984 5.95833 13.6068 5.175 12.8234C4.39167 12.0401 4 11.0984 4 9.99844C4 8.89844 4.39167 7.95677 5.175 7.17344C5.95833 6.3901 6.9 5.99844 8 5.99844C9.1 5.99844 10.0417 6.3901 10.825 7.17344C11.6083 7.95677 12 8.89844 12 9.99844C12 10.3651 11.9543 10.7194 11.863 11.0614C11.7717 11.4034 11.634 11.7324 11.45 12.0484L13.7 14.2984C13.9 14.4984 14 14.7361 14 15.0114C14 15.2868 13.9 15.5241 13.7 15.7234C13.5 15.9228 13.2667 16.0228 13 16.0234C12.7333 16.0241 12.5 15.9241 12.3 15.7234L10 13.4484C9.7 13.6318 9.37933 13.7694 9.038 13.8614C8.69667 13.9534 8.35067 13.9991 8 13.9984Z" fill="#202020"/>
</svg>
