<svg width="11" height="12" viewBox="0 0 11 12" fill="none" xmlns="http://www.w3.org/2000/svg">
<path d="M5.78163 11.3375C5.33991 11.3375 4.91763 11.1593 4.07361 10.8029C1.97247 9.91515 0.921631 9.47073 0.921631 8.72391V3.23751M5.78163 11.3375C6.22335 11.3375 6.64563 11.1593 7.48965 10.8029C9.59079 9.91515 10.6416 9.47073 10.6416 8.72391V3.23751M5.78163 11.3375V5.58921M2.54163 5.93751L3.62163 6.47751M8.48163 1.61751L3.08163 4.31751M3.79767 4.69065L2.22033 3.92763C1.35471 3.50859 0.921631 3.29907 0.921631 2.96751C0.921631 2.63595 1.35471 2.42643 2.22033 2.00739L3.79713 1.24437C4.77183 0.772946 5.25783 0.537506 5.78163 0.537506C6.30543 0.537506 6.79197 0.772946 7.76559 1.24437L9.34293 2.00739C10.2086 2.42643 10.6416 2.63595 10.6416 2.96751C10.6416 3.29907 10.2086 3.50859 9.34293 3.92763L7.76613 4.69065C6.79143 5.16207 6.30543 5.39751 5.78163 5.39751C5.25783 5.39751 4.77129 5.16207 3.79767 4.69065Z" stroke="#202020" stroke-width="0.6" stroke-linecap="round" stroke-linejoin="round"/>
</svg>
