<svg width="30" height="30" viewBox="0 0 30 30" fill="none" xmlns="http://www.w3.org/2000/svg">
<g clip-path="url(#clip0_9070_10361)">
<path d="M9.36785 26.6336C11.483 26.6336 13.4305 25.9203 15 24.7335C16.57 25.9208 18.517 26.6336 20.6321 26.6336C25.798 26.6336 30.0001 22.4317 30.0001 17.2663C30.0001 12.1004 25.7981 7.89844 20.6321 7.89844C18.517 7.89844 16.5695 8.61174 15 9.7985C13.4301 8.6112 11.483 7.89844 9.36785 7.89844C4.20195 7.89849 0 12.1004 0 17.2663C0 22.4312 4.20195 26.6336 9.36785 26.6336ZM15 13.4811C15.7297 14.5632 16.1563 15.866 16.1563 17.2663C16.1563 18.6666 15.7297 19.9694 15 21.0515C14.2702 19.9694 13.8436 18.6666 13.8436 17.2663C13.8436 15.866 14.2707 14.5632 15 13.4811ZM20.6326 10.4773C24.3761 10.4773 27.4216 13.5228 27.4216 17.2663C27.4216 21.0097 24.3761 24.0547 20.6326 24.0547C19.2287 24.0547 17.9228 23.6262 16.8392 22.8933C18.0239 21.3243 18.7356 19.3794 18.7356 17.2663C18.7356 15.1532 18.0239 13.2077 16.8392 11.6388C17.9228 10.9059 19.2287 10.4773 20.6326 10.4773ZM9.36785 10.4773C10.7718 10.4773 12.0777 10.9059 13.1613 11.6388C11.9766 13.2078 11.2648 15.1532 11.2648 17.2663C11.2648 19.3793 11.9766 21.3243 13.1613 22.8933C12.0777 23.6262 10.7718 24.0547 9.36785 24.0547C5.62446 24.0547 2.57885 21.0097 2.57885 17.2663C2.5788 13.5228 5.62441 10.4773 9.36785 10.4773Z" fill="#2D033B"/>
<path d="M14.8189 4.19703H14.8086C14.8086 4.19703 13.383 2.6358 12.139 3.77617C10.8949 4.91654 11.9832 7.54383 14.8086 8.6842L14.8189 8.69402C17.6438 7.55364 18.7325 4.91654 17.4885 3.77622C16.2445 2.6358 14.8189 4.19703 14.8189 4.19703Z" fill="#E93838"/>
</g>
<defs>
<clipPath id="clip0_9070_10361">
<rect width="30" height="30" fill="white"/>
</clipPath>
</defs>
</svg>
