<svg width="19" height="17" viewBox="0 0 19 17" fill="none" xmlns="http://www.w3.org/2000/svg">
<path d="M17.4968 0.884766C17.6141 0.865022 17.7285 0.880713 17.8386 0.930664L17.8396 0.929688C17.9894 0.994375 18.0931 1.11156 18.1501 1.27148C18.2064 1.42952 18.2051 1.58549 18.1414 1.73242V1.73438L16.6003 5.12012V14.3857C16.6003 14.8587 16.4318 15.2655 16.0984 15.5996C15.7649 15.9329 15.3581 16.1006 14.8845 16.1006H4.11499C3.64194 16.1006 3.23525 15.933 2.90112 15.5996C2.56765 15.2661 2.4002 14.8593 2.40015 14.3857V5.12207L0.859131 1.73438L0.858154 1.73242C0.794531 1.58504 0.792972 1.42908 0.849365 1.27148C0.906422 1.11214 1.0107 0.994758 1.15991 0.928711C1.30733 0.863598 1.46351 0.861593 1.62183 0.917969C1.7813 0.974796 1.89836 1.07737 1.96265 1.22559H1.96167L3.64917 4.9502H15.3513L17.0369 1.22656C17.1015 1.07683 17.2192 0.973095 17.3787 0.916016L17.4968 0.884766ZM3.60034 14.3857C3.60039 14.5413 3.64932 14.6623 3.7439 14.7568C3.83842 14.8513 3.95955 14.9004 4.11597 14.9004H14.8845C15.0402 14.9004 15.162 14.8515 15.2566 14.7568C15.3511 14.6623 15.4001 14.5413 15.4001 14.3857V6.15039H3.60034V14.3857ZM11.4998 8.40039C11.6672 8.40039 11.8122 8.45798 11.9275 8.57324C12.0427 8.68849 12.1003 8.83356 12.1003 9.00098C12.1002 9.16819 12.0426 9.3126 11.9275 9.42773C11.8122 9.543 11.6672 9.60059 11.4998 9.60059H7.49976C7.33186 9.60053 7.18676 9.54328 7.07202 9.42773C6.95772 9.31257 6.90093 9.16802 6.90015 9.00098C6.89936 8.83313 6.95685 8.6876 7.073 8.57227C7.18862 8.45763 7.33309 8.40045 7.49976 8.40039H11.4998Z" fill="white" stroke="white" stroke-width="0.2"/>
</svg>
