<svg width="24" height="24" viewBox="0 0 24 24" fill="none" xmlns="http://www.w3.org/2000/svg">
<path d="M12.0005 15.5923V8.40625M12.0005 8.40625L14.7285 11.3483M12.0005 8.40625L9.27246 11.3483" stroke="#202020" stroke-width="1.5" stroke-linecap="round" stroke-linejoin="round"/>
<path d="M19.6221 13.0005C19.6654 12.6685 19.6888 12.3349 19.6921 11.9995C19.6885 11.6648 19.6651 11.3305 19.6221 10.9985L21.7891 9.30203C21.887 9.22733 21.9539 9.11914 21.977 8.99818C22 8.87723 21.9776 8.75201 21.9141 8.64653L19.8621 5.08803C19.8027 4.98128 19.7063 4.89996 19.5911 4.85943C19.4758 4.8189 19.3497 4.82196 19.2366 4.86803L16.6791 5.89853C16.147 5.4924 15.5651 5.156 14.9476 4.89753L14.5621 2.18003C14.5451 2.0598 14.485 1.94987 14.3929 1.87075C14.3008 1.79162 14.183 1.74871 14.0616 1.75003H9.94761C9.82619 1.74871 9.70845 1.79162 9.61635 1.87075C9.52426 1.94987 9.4641 2.0598 9.44711 2.18003L9.06161 4.89753C8.44338 5.1545 7.8613 5.49101 7.33011 5.89853L4.76261 4.86753C4.64941 4.82132 4.5232 4.81819 4.40785 4.85873C4.2925 4.89926 4.19601 4.98066 4.13661 5.08753L2.08461 8.64653C2.02092 8.75206 1.99846 8.87738 2.02153 8.99846C2.0446 9.11953 2.11158 9.22782 2.20961 9.30253L4.37211 10.999C4.3291 11.3309 4.30573 11.6649 4.30211 11.9995C4.30544 12.3349 4.32877 12.6685 4.37211 13.0005L2.20961 14.697C2.11171 14.7717 2.04482 14.8799 2.02175 15.0009C1.99869 15.1218 2.02107 15.2471 2.08461 15.3525L4.13611 18.911C4.19551 19.0179 4.292 19.0993 4.40735 19.1398C4.5227 19.1804 4.64891 19.1772 4.76211 19.131L7.31961 18.1005C7.85173 18.5067 8.43362 18.8431 9.05111 19.1015L9.43611 21.819C9.45311 21.9393 9.51334 22.0493 9.60554 22.1285C9.69774 22.2076 9.81561 22.2505 9.93711 22.249H14.0411C14.1624 22.2502 14.2801 22.2073 14.372 22.1281C14.464 22.049 14.5241 21.9392 14.5411 21.819L14.9271 19.1015C15.5453 18.8446 16.1274 18.5081 16.6586 18.1005L19.2161 19.1315C19.4501 19.2265 19.7186 19.132 19.8416 18.9115L21.8936 15.3525C21.957 15.2471 21.9793 15.122 21.9562 15.0011C21.9332 14.8803 21.8664 14.7722 21.7686 14.6975L19.6221 13.0005Z" stroke="#202020" stroke-width="1.5" stroke-linecap="round" stroke-linejoin="round"/>
</svg>
