<svg width="12" height="12" viewBox="0 0 12 12" fill="none" xmlns="http://www.w3.org/2000/svg">
<path d="M10.8809 3.23596V5.93607M1.16091 3.23596V8.72312C1.16091 9.46996 2.21175 9.91386 4.31289 10.8011C5.15691 11.1581 5.57919 11.3363 6.02091 11.3363V5.58775M7.64091 9.71621C7.64091 9.71621 8.11341 9.71621 8.58591 10.7963C8.58591 10.7963 10.0871 8.09615 11.4209 7.55613" stroke="#202020" stroke-width="0.6" stroke-linecap="round" stroke-linejoin="round"/>
<path d="M2.78091 5.93616L3.86091 6.47618M8.72091 1.61599L3.32091 4.3161M4.03695 4.68925L2.45961 3.9262C1.59399 3.50715 1.16091 3.29762 1.16091 2.96604C1.16091 2.63447 1.59399 2.42494 2.45961 2.00589L4.03641 1.24284C5.01111 0.771399 5.49711 0.53595 6.02091 0.53595C6.54471 0.53595 7.03125 0.771399 8.00487 1.24284L9.58221 2.00589C10.4478 2.42494 10.8809 2.63447 10.8809 2.96604C10.8809 3.29762 10.4478 3.50715 9.58221 3.9262L8.00541 4.68925C7.03071 5.16069 6.54471 5.39614 6.02091 5.39614C5.49711 5.39614 5.01057 5.16069 4.03695 4.68925Z" stroke="#202020" stroke-width="0.6" stroke-linecap="round" stroke-linejoin="round"/>
</svg>
