<svg width="19" height="16" viewBox="0 0 19 16" fill="none" xmlns="http://www.w3.org/2000/svg">
<path d="M16.7114 0.5H2.28835C1.90582 0.5 1.53897 0.651957 1.26848 0.922442C0.997996 1.19293 0.846039 1.55978 0.846039 1.94231V3.22308C1.24079 2.86485 1.75529 2.66728 2.28835 2.66923V1.94231H16.7114V2.66923C17.2445 2.66728 17.759 2.86485 18.1537 3.22308V1.94231C18.1537 1.55978 18.0018 1.19293 17.7313 0.922442C17.4608 0.651957 17.0939 0.5 16.7114 0.5ZM16.7114 3.38462H2.28835C1.90582 3.38462 1.53897 3.53657 1.26848 3.80706C0.997996 4.07754 0.846039 4.4444 0.846039 4.82692V6.10769C1.24079 5.74946 1.75529 5.5519 2.28835 5.55385V4.82692H16.7114V5.55385C17.2445 5.5519 17.759 5.74946 18.1537 6.10769V4.82692C18.1537 4.4444 18.0018 4.07754 17.7313 3.80706C17.4608 3.53657 17.0939 3.38462 16.7114 3.38462ZM16.7114 6.26923H12.3845C12.3574 7.0089 12.0389 7.70785 11.4986 8.21364C10.9582 8.71944 10.2397 8.99105 9.49988 8.96923C8.76004 8.99105 8.04159 8.71944 7.50121 8.21364C6.96083 7.70785 6.64236 7.0089 6.61527 6.26923H2.28835C1.90582 6.26923 1.53897 6.42119 1.26848 6.69167C0.997996 6.96216 0.846039 7.32901 0.846039 7.71154V14.0577C0.846039 14.4402 0.997996 14.8071 1.26848 15.0776C1.53897 15.348 1.90582 15.5 2.28835 15.5H16.7114C17.0939 15.5 17.4608 15.348 17.7313 15.0776C18.0018 14.8071 18.1537 14.4402 18.1537 14.0577V7.71154C18.1537 7.32901 18.0018 6.96216 17.7313 6.69167C17.4608 6.42119 17.0939 6.26923 16.7114 6.26923ZM16.7114 14.0577H2.28835V7.71154H5.43835C5.76674 8.51682 6.32957 9.20482 7.05381 9.68628C7.77805 10.1677 8.63026 10.4204 9.49988 10.4115C10.3699 10.422 11.2228 10.1699 11.9473 9.68829C12.6718 9.20664 13.2344 8.51775 13.5614 7.71154H16.7114V14.0577Z" fill="#202020"/>
</svg>
