<svg width="20" height="21" viewBox="0 0 20 21" fill="none" xmlns="http://www.w3.org/2000/svg">
<path fill-rule="evenodd" clip-rule="evenodd" d="M10.5 10.0832L13.7425 13.3257L13.0359 14.0332L9.50002 10.4974V5.4974H10.5V10.0832ZM10 18.8307C5.39752 18.8307 1.66669 15.0999 1.66669 10.4974C1.66669 5.8949 5.39752 2.16406 10 2.16406C14.6025 2.16406 18.3334 5.8949 18.3334 10.4974C18.3334 15.0999 14.6025 18.8307 10 18.8307ZM10 17.8307C11.9449 17.8307 13.8102 17.0581 15.1855 15.6828C16.5607 14.3076 17.3334 12.4423 17.3334 10.4974C17.3334 8.55247 16.5607 6.68721 15.1855 5.31195C13.8102 3.93668 11.9449 3.16406 10 3.16406C8.0551 3.16406 6.18984 3.93668 4.81457 5.31195C3.4393 6.68721 2.66669 8.55247 2.66669 10.4974C2.66669 12.4423 3.4393 14.3076 4.81457 15.6828C6.18984 17.0581 8.0551 17.8307 10 17.8307Z" fill="#202020"/>
</svg>
