<svg width="20" height="20" viewBox="0 0 20 20" fill="none" xmlns="http://www.w3.org/2000/svg">
<g id="lucide:video">
<g id="Group">
<path id="Vector" d="M13.333 10.8324L17.6855 13.7341C17.7483 13.7758 17.8211 13.7998 17.8964 13.8034C17.9717 13.807 18.0466 13.7901 18.113 13.7545C18.1795 13.719 18.235 13.666 18.2737 13.6014C18.3125 13.5367 18.333 13.4628 18.333 13.3874V6.55741C18.333 6.4841 18.3137 6.41208 18.277 6.34862C18.2403 6.28516 18.1875 6.23252 18.1239 6.196C18.0603 6.15948 17.9882 6.14038 17.9149 6.14063C17.8416 6.14088 17.7697 6.16046 17.7063 6.19742L13.333 8.74908" stroke="#202020" stroke-opacity="0.8" stroke-linecap="round" stroke-linejoin="round"/>
<path id="Vector_2" d="M11.6665 5H3.33317C2.4127 5 1.6665 5.74619 1.6665 6.66667V13.3333C1.6665 14.2538 2.4127 15 3.33317 15H11.6665C12.587 15 13.3332 14.2538 13.3332 13.3333V6.66667C13.3332 5.74619 12.587 5 11.6665 5Z" stroke="#202020" stroke-opacity="0.8" stroke-linecap="round" stroke-linejoin="round"/>
</g>
</g>
</svg>
