<svg width="17" height="16" viewBox="0 0 17 16" fill="none" xmlns="http://www.w3.org/2000/svg">
<path d="M13.8333 4.0026C14.2199 4.0026 14.5333 4.13594 14.7799 4.39594C15.0333 4.66927 15.1666 4.96927 15.1666 5.33594V12.6693C15.1666 13.0359 15.0333 13.3359 14.7799 13.6093C14.5333 13.8693 14.2199 14.0026 13.8333 14.0026H3.16659C2.77992 14.0026 2.46659 13.8693 2.21992 13.6093C1.96659 13.3359 1.83325 13.0359 1.83325 12.6693V5.33594C1.83325 4.96927 1.96659 4.66927 2.21992 4.39594C2.46659 4.13594 2.77992 4.0026 3.16659 4.0026H5.83325V2.66927C5.83325 2.2826 5.96659 1.96927 6.21992 1.7226C6.46659 1.46927 6.77992 1.33594 7.16658 1.33594H9.83325C10.2199 1.33594 10.5333 1.46927 10.7799 1.7226C11.0333 1.96927 11.1666 2.2826 11.1666 2.66927V4.0026H13.8333ZM3.16659 5.33594V12.6693H13.8333V5.33594H3.16659ZM9.83325 4.0026V2.66927H7.16658V4.0026H9.83325Z" fill="#2D033B" fill-opacity="0.7"/>
</svg>
